<mxfile host="app.diagrams.net" modified="2021-07-07T01:10:34.958Z" agent="5.0 (X11; Linux x86_64) AppleWebKit/537.36 (KHTML, like Gecko) Chrome/91.0.4472.77 Safari/537.36" etag="cHaCzmAe7IQdA_RakTN-" version="14.8.1" type="github">
  <diagram id="umfn3TfbESv5R6rosuh4" name="Page-1">
    <mxGraphModel dx="1422" dy="731" grid="1" gridSize="10" guides="1" tooltips="1" connect="1" arrows="1" fold="1" page="1" pageScale="1" pageWidth="850" pageHeight="1100" math="0" shadow="0">
      <root>
        <mxCell id="0" />
        <mxCell id="1" parent="0" />
        <mxCell id="Owtj56LBjJoy0qXv2wrW-5" style="edgeStyle=orthogonalEdgeStyle;rounded=0;orthogonalLoop=1;jettySize=auto;html=1;exitX=1;exitY=0.25;exitDx=0;exitDy=0;entryX=0;entryY=0.25;entryDx=0;entryDy=0;" parent="1" source="Owtj56LBjJoy0qXv2wrW-1" target="Owtj56LBjJoy0qXv2wrW-2" edge="1">
          <mxGeometry relative="1" as="geometry" />
        </mxCell>
        <mxCell id="Owtj56LBjJoy0qXv2wrW-10" value="TX" style="edgeLabel;html=1;align=center;verticalAlign=middle;resizable=0;points=[];" parent="Owtj56LBjJoy0qXv2wrW-5" vertex="1" connectable="0">
          <mxGeometry x="-0.9381" y="-1" relative="1" as="geometry">
            <mxPoint as="offset" />
          </mxGeometry>
        </mxCell>
        <mxCell id="Owtj56LBjJoy0qXv2wrW-11" value="RX" style="edgeLabel;html=1;align=center;verticalAlign=middle;resizable=0;points=[];" parent="Owtj56LBjJoy0qXv2wrW-5" vertex="1" connectable="0">
          <mxGeometry x="0.9238" y="-2" relative="1" as="geometry">
            <mxPoint as="offset" />
          </mxGeometry>
        </mxCell>
        <mxCell id="Owtj56LBjJoy0qXv2wrW-1" value="Raspberry Pi" style="rounded=0;whiteSpace=wrap;html=1;" parent="1" vertex="1">
          <mxGeometry x="40" y="300" width="120" height="60" as="geometry" />
        </mxCell>
        <mxCell id="Owtj56LBjJoy0qXv2wrW-8" style="edgeStyle=orthogonalEdgeStyle;rounded=0;orthogonalLoop=1;jettySize=auto;html=1;exitX=0;exitY=0.75;exitDx=0;exitDy=0;entryX=0;entryY=0.25;entryDx=0;entryDy=0;" parent="1" source="Owtj56LBjJoy0qXv2wrW-2" target="Owtj56LBjJoy0qXv2wrW-3" edge="1">
          <mxGeometry relative="1" as="geometry" />
        </mxCell>
        <mxCell id="Owtj56LBjJoy0qXv2wrW-12" value="TX" style="edgeLabel;html=1;align=center;verticalAlign=middle;resizable=0;points=[];" parent="Owtj56LBjJoy0qXv2wrW-8" vertex="1" connectable="0">
          <mxGeometry x="-0.7778" y="-1" relative="1" as="geometry">
            <mxPoint y="-1" as="offset" />
          </mxGeometry>
        </mxCell>
        <mxCell id="Owtj56LBjJoy0qXv2wrW-13" value="RX" style="edgeLabel;html=1;align=center;verticalAlign=middle;resizable=0;points=[];" parent="Owtj56LBjJoy0qXv2wrW-8" vertex="1" connectable="0">
          <mxGeometry x="0.7556" y="-1" relative="1" as="geometry">
            <mxPoint as="offset" />
          </mxGeometry>
        </mxCell>
        <mxCell id="Owtj56LBjJoy0qXv2wrW-41" style="edgeStyle=orthogonalEdgeStyle;rounded=0;orthogonalLoop=1;jettySize=auto;html=1;exitX=1;exitY=0.75;exitDx=0;exitDy=0;entryX=0;entryY=0.5;entryDx=0;entryDy=0;" parent="1" source="Owtj56LBjJoy0qXv2wrW-2" target="Owtj56LBjJoy0qXv2wrW-40" edge="1">
          <mxGeometry relative="1" as="geometry" />
        </mxCell>
        <mxCell id="Owtj56LBjJoy0qXv2wrW-42" style="edgeStyle=orthogonalEdgeStyle;rounded=0;orthogonalLoop=1;jettySize=auto;html=1;exitX=1;exitY=0.25;exitDx=0;exitDy=0;entryX=0;entryY=0.5;entryDx=0;entryDy=0;" parent="1" source="Owtj56LBjJoy0qXv2wrW-2" target="Owtj56LBjJoy0qXv2wrW-39" edge="1">
          <mxGeometry relative="1" as="geometry" />
        </mxCell>
        <mxCell id="z1LRM5TZB00Z0msjYhgp-2" style="edgeStyle=orthogonalEdgeStyle;rounded=0;orthogonalLoop=1;jettySize=auto;html=1;exitX=0.75;exitY=0;exitDx=0;exitDy=0;entryX=0.5;entryY=1;entryDx=0;entryDy=0;" edge="1" parent="1" source="Owtj56LBjJoy0qXv2wrW-2" target="z1LRM5TZB00Z0msjYhgp-1">
          <mxGeometry relative="1" as="geometry" />
        </mxCell>
        <mxCell id="Owtj56LBjJoy0qXv2wrW-2" value="Control Board" style="rounded=0;whiteSpace=wrap;html=1;" parent="1" vertex="1">
          <mxGeometry x="410" y="130" width="120" height="60" as="geometry" />
        </mxCell>
        <mxCell id="Owtj56LBjJoy0qXv2wrW-9" style="edgeStyle=orthogonalEdgeStyle;rounded=0;orthogonalLoop=1;jettySize=auto;html=1;exitX=0;exitY=0.75;exitDx=0;exitDy=0;entryX=0;entryY=0.25;entryDx=0;entryDy=0;" parent="1" source="Owtj56LBjJoy0qXv2wrW-3" target="Owtj56LBjJoy0qXv2wrW-4" edge="1">
          <mxGeometry relative="1" as="geometry" />
        </mxCell>
        <mxCell id="Owtj56LBjJoy0qXv2wrW-14" value="TX" style="edgeLabel;html=1;align=center;verticalAlign=middle;resizable=0;points=[];" parent="Owtj56LBjJoy0qXv2wrW-9" vertex="1" connectable="0">
          <mxGeometry x="-0.7556" relative="1" as="geometry">
            <mxPoint as="offset" />
          </mxGeometry>
        </mxCell>
        <mxCell id="Owtj56LBjJoy0qXv2wrW-15" value="RX" style="edgeLabel;html=1;align=center;verticalAlign=middle;resizable=0;points=[];" parent="Owtj56LBjJoy0qXv2wrW-9" vertex="1" connectable="0">
          <mxGeometry x="0.7778" y="-2" relative="1" as="geometry">
            <mxPoint as="offset" />
          </mxGeometry>
        </mxCell>
        <mxCell id="Owtj56LBjJoy0qXv2wrW-24" style="edgeStyle=orthogonalEdgeStyle;rounded=0;orthogonalLoop=1;jettySize=auto;html=1;exitX=1;exitY=0.25;exitDx=0;exitDy=0;entryX=0;entryY=0.5;entryDx=0;entryDy=0;" parent="1" source="Owtj56LBjJoy0qXv2wrW-3" target="Owtj56LBjJoy0qXv2wrW-22" edge="1">
          <mxGeometry relative="1" as="geometry" />
        </mxCell>
        <mxCell id="Owtj56LBjJoy0qXv2wrW-3" value="Interface Board" style="rounded=0;whiteSpace=wrap;html=1;" parent="1" vertex="1">
          <mxGeometry x="410" y="300" width="120" height="60" as="geometry" />
        </mxCell>
        <mxCell id="Owtj56LBjJoy0qXv2wrW-7" style="edgeStyle=orthogonalEdgeStyle;rounded=0;orthogonalLoop=1;jettySize=auto;html=1;exitX=0;exitY=0.75;exitDx=0;exitDy=0;entryX=1;entryY=0.75;entryDx=0;entryDy=0;" parent="1" source="Owtj56LBjJoy0qXv2wrW-4" target="Owtj56LBjJoy0qXv2wrW-1" edge="1">
          <mxGeometry relative="1" as="geometry" />
        </mxCell>
        <mxCell id="Owtj56LBjJoy0qXv2wrW-16" value="TX" style="edgeLabel;html=1;align=center;verticalAlign=middle;resizable=0;points=[];" parent="Owtj56LBjJoy0qXv2wrW-7" vertex="1" connectable="0">
          <mxGeometry x="-0.9286" relative="1" as="geometry">
            <mxPoint as="offset" />
          </mxGeometry>
        </mxCell>
        <mxCell id="Owtj56LBjJoy0qXv2wrW-17" value="RX" style="edgeLabel;html=1;align=center;verticalAlign=middle;resizable=0;points=[];" parent="Owtj56LBjJoy0qXv2wrW-7" vertex="1" connectable="0">
          <mxGeometry x="0.9381" y="2" relative="1" as="geometry">
            <mxPoint as="offset" />
          </mxGeometry>
        </mxCell>
        <mxCell id="Owtj56LBjJoy0qXv2wrW-4" value="Imaging Board" style="whiteSpace=wrap;html=1;" parent="1" vertex="1">
          <mxGeometry x="410" y="470" width="120" height="60" as="geometry" />
        </mxCell>
        <mxCell id="Owtj56LBjJoy0qXv2wrW-18" value="TCD1304DG&lt;br&gt;CCD" style="whiteSpace=wrap;html=1;" parent="1" vertex="1">
          <mxGeometry x="630" y="510" width="80" height="60" as="geometry" />
        </mxCell>
        <mxCell id="Owtj56LBjJoy0qXv2wrW-22" value="TFT LCD" style="whiteSpace=wrap;html=1;" parent="1" vertex="1">
          <mxGeometry x="630" y="260" width="80" height="60" as="geometry" />
        </mxCell>
        <mxCell id="Owtj56LBjJoy0qXv2wrW-25" style="edgeStyle=orthogonalEdgeStyle;rounded=0;orthogonalLoop=1;jettySize=auto;html=1;exitX=0;exitY=0.5;exitDx=0;exitDy=0;entryX=1;entryY=0.75;entryDx=0;entryDy=0;" parent="1" source="Owtj56LBjJoy0qXv2wrW-23" target="Owtj56LBjJoy0qXv2wrW-3" edge="1">
          <mxGeometry relative="1" as="geometry" />
        </mxCell>
        <mxCell id="Owtj56LBjJoy0qXv2wrW-23" value="Touchpad" style="whiteSpace=wrap;html=1;" parent="1" vertex="1">
          <mxGeometry x="630" y="340" width="80" height="60" as="geometry" />
        </mxCell>
        <mxCell id="Owtj56LBjJoy0qXv2wrW-27" value="" style="endArrow=classic;startArrow=classic;html=1;entryX=0;entryY=0.5;entryDx=0;entryDy=0;exitX=1;exitY=0.75;exitDx=0;exitDy=0;rounded=0;" parent="1" source="Owtj56LBjJoy0qXv2wrW-4" target="Owtj56LBjJoy0qXv2wrW-18" edge="1">
          <mxGeometry width="50" height="50" relative="1" as="geometry">
            <mxPoint x="310" y="430" as="sourcePoint" />
            <mxPoint x="360" y="380" as="targetPoint" />
            <Array as="points">
              <mxPoint x="580" y="515" />
              <mxPoint x="580" y="540" />
            </Array>
          </mxGeometry>
        </mxCell>
        <mxCell id="Owtj56LBjJoy0qXv2wrW-28" value="CCD Temperature" style="whiteSpace=wrap;html=1;" parent="1" vertex="1">
          <mxGeometry x="630" y="430" width="80" height="60" as="geometry" />
        </mxCell>
        <mxCell id="Owtj56LBjJoy0qXv2wrW-29" value="" style="endArrow=classic;startArrow=classic;html=1;rounded=0;exitX=1;exitY=0.25;exitDx=0;exitDy=0;entryX=0;entryY=0.5;entryDx=0;entryDy=0;" parent="1" source="Owtj56LBjJoy0qXv2wrW-4" target="Owtj56LBjJoy0qXv2wrW-28" edge="1">
          <mxGeometry width="50" height="50" relative="1" as="geometry">
            <mxPoint x="310" y="430" as="sourcePoint" />
            <mxPoint x="360" y="380" as="targetPoint" />
            <Array as="points">
              <mxPoint x="580" y="485" />
              <mxPoint x="580" y="460" />
            </Array>
          </mxGeometry>
        </mxCell>
        <mxCell id="Owtj56LBjJoy0qXv2wrW-31" value="" style="endArrow=classic;html=1;rounded=0;entryX=0.25;entryY=0;entryDx=0;entryDy=0;" parent="1" target="Owtj56LBjJoy0qXv2wrW-2" edge="1">
          <mxGeometry width="50" height="50" relative="1" as="geometry">
            <mxPoint x="400" y="50" as="sourcePoint" />
            <mxPoint x="470" y="130" as="targetPoint" />
            <Array as="points">
              <mxPoint x="400" y="100" />
              <mxPoint x="440" y="100" />
            </Array>
          </mxGeometry>
        </mxCell>
        <mxCell id="Owtj56LBjJoy0qXv2wrW-37" value="PC_8" style="edgeLabel;html=1;align=center;verticalAlign=middle;resizable=0;points=[];" parent="Owtj56LBjJoy0qXv2wrW-31" vertex="1" connectable="0">
          <mxGeometry x="0.6" y="2" relative="1" as="geometry">
            <mxPoint as="offset" />
          </mxGeometry>
        </mxCell>
        <mxCell id="Owtj56LBjJoy0qXv2wrW-33" value="Cuvette Temperature" style="whiteSpace=wrap;html=1;" parent="1" vertex="1">
          <mxGeometry x="300" y="20" width="80" height="60" as="geometry" />
        </mxCell>
        <mxCell id="Owtj56LBjJoy0qXv2wrW-34" value="Laser Temperature" style="whiteSpace=wrap;html=1;" parent="1" vertex="1">
          <mxGeometry x="420" y="20" width="80" height="60" as="geometry" />
        </mxCell>
        <mxCell id="Owtj56LBjJoy0qXv2wrW-35" value="" style="endArrow=classic;html=1;entryX=0;entryY=0.5;entryDx=0;entryDy=0;" parent="1" target="Owtj56LBjJoy0qXv2wrW-34" edge="1">
          <mxGeometry width="50" height="50" relative="1" as="geometry">
            <mxPoint x="400" y="50" as="sourcePoint" />
            <mxPoint x="380" y="210" as="targetPoint" />
          </mxGeometry>
        </mxCell>
        <mxCell id="Owtj56LBjJoy0qXv2wrW-36" value="" style="endArrow=classic;html=1;entryX=1;entryY=0.5;entryDx=0;entryDy=0;" parent="1" target="Owtj56LBjJoy0qXv2wrW-33" edge="1">
          <mxGeometry width="50" height="50" relative="1" as="geometry">
            <mxPoint x="400" y="50" as="sourcePoint" />
            <mxPoint x="380" y="210" as="targetPoint" />
          </mxGeometry>
        </mxCell>
        <mxCell id="Owtj56LBjJoy0qXv2wrW-39" value="Filter&lt;br&gt;Stepper" style="whiteSpace=wrap;html=1;" parent="1" vertex="1">
          <mxGeometry x="630" y="90" width="80" height="60" as="geometry" />
        </mxCell>
        <mxCell id="Owtj56LBjJoy0qXv2wrW-40" value="Cuvette&lt;br&gt;Stepper" style="whiteSpace=wrap;html=1;" parent="1" vertex="1">
          <mxGeometry x="630" y="170" width="80" height="60" as="geometry" />
        </mxCell>
        <mxCell id="z1LRM5TZB00Z0msjYhgp-1" value="HBridge&lt;br&gt;Peltiers" style="whiteSpace=wrap;html=1;" vertex="1" parent="1">
          <mxGeometry x="540" y="20" width="80" height="60" as="geometry" />
        </mxCell>
      </root>
    </mxGraphModel>
  </diagram>
</mxfile>
